<svg width="21" height="16" viewBox="0 0 21 16" fill="none" xmlns="http://www.w3.org/2000/svg">
<path d="M18.5781 8C18.5781 7.24 19.0081 6.58 19.6381 6.24C20.2381 5.91 20.5781 5.23 20.5781 4.54V2C20.5781 0.9 19.6781 0 18.5781 0H2.57812C1.47812 0 0.588125 0.89 0.588125 1.99V4.54C0.588125 5.23 0.918125 5.91 1.52813 6.23C2.15813 6.58 2.57812 7.24 2.57812 8C2.57812 8.76 2.14813 9.43 1.51813 9.76C0.918125 10.09 0.578125 10.77 0.578125 11.46V14C0.578125 15.1 1.47812 16 2.57812 16H18.5781C19.6781 16 20.5781 15.1 20.5781 14V11.46C20.5781 10.77 20.2381 10.09 19.6381 9.76C19.0081 9.42 18.5781 8.76 18.5781 8ZM13.0781 12.1L10.5781 10.5L8.07812 12.11C7.69812 12.35 7.20813 12 7.32812 11.56L8.07812 8.68L5.77812 6.8C5.42812 6.51 5.60812 5.94 6.06812 5.91L9.02812 5.74L10.1081 2.99C10.2781 2.57 10.8781 2.57 11.0381 2.99L12.1181 5.75L15.0781 5.92C15.5281 5.95 15.7181 6.52 15.3681 6.81L13.0681 8.69L13.8281 11.55C13.9481 12 13.4581 12.35 13.0781 12.1Z" fill="#27AE60"/>
</svg>
