<svg width="21" height="20" viewBox="0 0 21 20" fill="none" xmlns="http://www.w3.org/2000/svg">
<path d="M10.5781 0C5.05813 0 0.578125 4.48 0.578125 10C0.578125 15.52 5.05813 20 10.5781 20C16.0981 20 20.5781 15.52 20.5781 10C20.5781 4.48 16.0981 0 10.5781 0ZM10.5781 3C12.2381 3 13.5781 4.34 13.5781 6C13.5781 7.66 12.2381 9 10.5781 9C8.91813 9 7.57812 7.66 7.57812 6C7.57812 4.34 8.91813 3 10.5781 3ZM10.5781 17.2C8.07812 17.2 5.86812 15.92 4.57812 13.98C4.60813 11.99 8.57812 10.9 10.5781 10.9C12.5681 10.9 16.5481 11.99 16.5781 13.98C15.2881 15.92 13.0781 17.2 10.5781 17.2Z" fill="#27AE60"/>
</svg>
