<svg width="38" height="38" viewBox="0 0 38 38" fill="none" xmlns="http://www.w3.org/2000/svg">
<path d="M3.23438 20.752V36.9987H28.7119" stroke="#27AE60" stroke-width="1.3" stroke-linejoin="round"/>
<path d="M28.7109 14.3711V37.0004H34.5265" stroke="#27AE60" stroke-width="1.3" stroke-linecap="round" stroke-linejoin="round"/>
<path d="M3.23438 20.752V36.9987H15.4193V20.752" stroke="#27AE60" stroke-width="1.3" stroke-linejoin="round"/>
<path d="M29.5391 14.3711H34.5238L37.2931 20.7537H32.0314L29.5391 14.3711Z" stroke="#27AE60" stroke-width="1.3" stroke-linejoin="round"/>
<path d="M5.59559 14.3711H2.40459L1.29688 20.4636H26.7744L27.8821 14.3711H20.6411" stroke="#27AE60" stroke-width="1.3" stroke-linejoin="round"/>
<path d="M19.1109 21.041V20.391H17.8109V21.041H19.1109ZM17.8109 23.9422C17.8109 24.3012 18.102 24.5922 18.4609 24.5922C18.8199 24.5922 19.1109 24.3012 19.1109 23.9422H17.8109ZM17.8109 21.041V23.9422H19.1109V21.041H17.8109Z" fill="#27AE60"/>
<line x1="18.8375" y1="29.525" x2="18.8375" y2="36.3484" stroke="#27AE60" stroke-width="1.3" stroke-linecap="round"/>
<line x1="18.8375" y1="26.0445" x2="18.8375" y2="27.0655" stroke="#27AE60" stroke-width="1.3" stroke-linecap="round"/>
<path d="M34.5312 37V20.7533" stroke="#27AE60" stroke-width="1.3" stroke-linecap="round"/>
<rect x="5.59375" y="1" width="15.0455" height="17.487" stroke="#27AE60" stroke-width="1.3" stroke-linejoin="round"/>
<path d="M16.1164 3.92356C15.95 3.66943 15.6091 3.59831 15.355 3.7647C15.1008 3.93109 15.0297 4.27199 15.1961 4.52612L16.1164 3.92356ZM17.0636 6.3742L16.6034 6.67548C16.7022 6.82636 16.8687 6.91922 17.049 6.924C17.2293 6.92878 17.4004 6.84488 17.5071 6.69945L17.0636 6.3742ZM19.4773 4.01275C19.657 3.7678 19.604 3.42361 19.3591 3.24398C19.1141 3.06435 18.7699 3.1173 18.5903 3.36225L19.4773 4.01275ZM15.1961 4.52612L16.6034 6.67548L17.5237 6.07291L16.1164 3.92356L15.1961 4.52612ZM17.5071 6.69945L19.4773 4.01275L18.5903 3.36225L16.62 6.04895L17.5071 6.69945Z" fill="#27AE60"/>
<line x1="7.76094" y1="4.74883" x2="13.4161" y2="4.74883" stroke="#27AE60" stroke-width="1.1" stroke-linecap="round"/>
<line x1="7.76094" y1="14.9578" x2="13.109" y2="14.9578" stroke="#27AE60" stroke-width="1.1" stroke-linecap="round"/>
<rect x="15.2734" y="14.4336" width="3.76137" height="2.6867" stroke="#27AE60" stroke-width="1.1" stroke-linejoin="round"/>
<line x1="7.76094" y1="9.58477" x2="13.109" y2="9.58477" stroke="#27AE60" stroke-width="1.1" stroke-linecap="round"/>
<line x1="18.8984" y1="8.75633" x2="15.8252" y2="11.8295" stroke="#27AE60" stroke-width="1.1" stroke-linecap="round"/>
<line x1="15.7778" y1="8.66797" x2="18.851" y2="11.7412" stroke="#27AE60" stroke-width="1.1" stroke-linecap="round"/>
</svg>
