<svg width="18" height="19" viewBox="0 0 18 19" fill="none" xmlns="http://www.w3.org/2000/svg">
<path d="M16.2271 12.7598L13.6871 12.4698C13.0771 12.3998 12.4771 12.6098 12.0471 13.0398L10.2071 14.8798C7.37711 13.4398 5.05711 11.1298 3.61711 8.28977L5.46711 6.43976C5.89711 6.00977 6.10711 5.40977 6.03711 4.79977L5.74711 2.27977C5.62711 1.26977 4.77711 0.509766 3.75711 0.509766H2.02711C0.897111 0.509766 -0.042889 1.44977 0.027111 2.57977C0.557111 11.1198 7.38711 17.9398 15.9171 18.4698C17.0471 18.5398 17.9871 17.5998 17.9871 16.4698V14.7398C17.9971 13.7298 17.2371 12.8798 16.2271 12.7598Z" fill="#28A55D"/>
</svg>
