<svg width="39" height="38" viewBox="0 0 39 38" fill="none" xmlns="http://www.w3.org/2000/svg">
<rect x="1.92969" y="29.1426" width="35.4706" height="7.85784" stroke="#27AE60" stroke-width="1.3" stroke-linejoin="round"/>
<path d="M6.87552 32.7445C6.87552 33.3212 6.4392 33.7315 5.96979 33.7315C5.50038 33.7315 5.06406 33.3212 5.06406 32.7445C5.06406 32.1677 5.50038 31.7574 5.96979 31.7574C6.4392 31.7574 6.87552 32.1677 6.87552 32.7445Z" stroke="#27AE60" stroke-width="1.3"/>
<line x1="0.65" y1="-0.65" x2="10.6738" y2="-0.65" transform="matrix(-0.65945 -0.751749 0.717315 -0.696749 37.3984 37)" stroke="#27AE60" stroke-width="1.3" stroke-linecap="round" stroke-linejoin="round"/>
<path d="M9.73594 29.7578V29.1078H8.43594V29.7578H9.73594ZM8.43594 31.0671C8.43594 31.4261 8.72695 31.7171 9.08594 31.7171C9.44492 31.7171 9.73594 31.4261 9.73594 31.0671H8.43594ZM8.43594 29.7578V31.0671H9.73594V29.7578H8.43594Z" fill="#27AE60"/>
<path d="M13.7672 29.4297V28.7797H12.4672V29.4297H13.7672ZM12.4672 30.739C12.4672 31.098 12.7582 31.389 13.1172 31.389C13.4762 31.389 13.7672 31.098 13.7672 30.739H12.4672ZM12.4672 29.4297V30.739H13.7672V29.4297H12.4672Z" fill="#27AE60"/>
<path d="M11.6031 29.4297V28.7797H10.3031V29.4297H11.6031ZM10.3031 32.049C10.3031 32.408 10.5941 32.699 10.9531 32.699C11.3121 32.699 11.6031 32.408 11.6031 32.049H10.3031ZM10.3031 29.4297V32.049H11.6031V29.4297H10.3031Z" fill="#27AE60"/>
<path d="M15.65 29.4297V28.7797H14.35V29.4297H15.65ZM14.35 32.049C14.35 32.408 14.641 32.699 15 32.699C15.359 32.699 15.65 32.408 15.65 32.049H14.35ZM14.35 29.4297V32.049H15.65V29.4297H14.35Z" fill="#27AE60"/>
<path d="M17.5172 29.7578V29.1078H16.2172V29.7578H17.5172ZM16.2172 31.0671C16.2172 31.4261 16.5082 31.7171 16.8672 31.7171C17.2262 31.7171 17.5172 31.4261 17.5172 31.0671H16.2172ZM16.2172 29.7578V31.0671H17.5172V29.7578H16.2172Z" fill="#27AE60"/>
<path d="M20.9391 29.7578V29.1078H19.6391V29.7578H20.9391ZM19.6391 31.0671C19.6391 31.4261 19.9301 31.7171 20.2891 31.7171C20.648 31.7171 20.9391 31.4261 20.9391 31.0671H19.6391ZM19.6391 29.7578V31.0671H20.9391V29.7578H19.6391Z" fill="#27AE60"/>
<path d="M19.3844 29.4297V28.7797H18.0844V29.4297H19.3844ZM18.0844 32.049C18.0844 32.408 18.3754 32.699 18.7344 32.699C19.0934 32.699 19.3844 32.408 19.3844 32.049H18.0844ZM18.0844 29.4297V32.049H19.3844V29.4297H18.0844Z" fill="#27AE60"/>
<path d="M22.8062 29.4297V28.7797H21.5063V29.4297H22.8062ZM21.5063 32.049C21.5063 32.408 21.7973 32.699 22.1562 32.699C22.5152 32.699 22.8062 32.408 22.8062 32.049H21.5063ZM21.5063 29.4297V32.049H22.8062V29.4297H21.5063Z" fill="#27AE60"/>
<path d="M24.3609 29.7578V29.1078H23.0609V29.7578H24.3609ZM23.0609 31.0671C23.0609 31.4261 23.352 31.7171 23.7109 31.7171C24.0699 31.7171 24.3609 31.4261 24.3609 31.0671H23.0609ZM23.0609 29.7578V31.0671H24.3609V29.7578H23.0609Z" fill="#27AE60"/>
<path d="M27.7828 29.7578V29.1078H26.4828V29.7578H27.7828ZM26.4828 31.0671C26.4828 31.4261 26.7738 31.7171 27.1328 31.7171C27.4918 31.7171 27.7828 31.4261 27.7828 31.0671H26.4828ZM26.4828 29.7578V31.0671H27.7828V29.7578H26.4828Z" fill="#27AE60"/>
<path d="M26.2281 29.4297V28.7797H24.9281V29.4297H26.2281ZM24.9281 32.049C24.9281 32.408 25.2191 32.699 25.5781 32.699C25.9371 32.699 26.2281 32.408 26.2281 32.049H24.9281ZM24.9281 29.4297V32.049H26.2281V29.4297H24.9281Z" fill="#27AE60"/>
<rect x="29.9297" y="14.7383" width="7.46749" height="14.4061" stroke="#27AE60" stroke-width="1.3" stroke-linejoin="round"/>
<line x1="33.0719" y1="14.7383" x2="33.0719" y2="29.1443" stroke="#27AE60" stroke-width="1.3" stroke-linejoin="round"/>
<line x1="35.5641" y1="15.3883" x2="35.5641" y2="28.4943" stroke="#27AE60" stroke-width="1.3" stroke-linecap="round" stroke-linejoin="round"/>
<path d="M27.6222 12.1666V26.3732L3.49739 26.4768V11.9971M29.4573 12.1623L15.5548 1L1.39844 11.9032L3.49236 11.8677M27.6248 12.1598H29.3099M4.10874 15.2673H27.1075M18.8165 26.0179V17.5493H12.1961V26.0179M17.4951 22.0617C17.4951 22.3735 17.1987 22.6263 16.8331 22.6263C16.4674 22.6263 16.171 22.3735 16.171 22.0617C16.171 21.7499 16.4674 21.4972 16.8331 21.4972C17.1987 21.4972 17.4951 21.7499 17.4951 22.0617Z" stroke="#27AE60" stroke-width="1.3" stroke-linecap="round" stroke-linejoin="round"/>
</svg>
