<svg width="18" height="22" viewBox="0 0 18 22" fill="none" xmlns="http://www.w3.org/2000/svg">
<path d="M16 5.5H14C14 2.74 11.76 0.5 9 0.5C6.24 0.5 4 2.74 4 5.5H2C0.9 5.5 0 6.4 0 7.5V19.5C0 20.6 0.9 21.5 2 21.5H16C17.1 21.5 18 20.6 18 19.5V7.5C18 6.4 17.1 5.5 16 5.5ZM9 2.5C10.66 2.5 12 3.84 12 5.5H6C6 3.84 7.34 2.5 9 2.5ZM9 12.5C6.67 12.5 4.71 10.91 4.16 8.75C3.99 8.12 4.48 7.5 5.13 7.5C5.6 7.5 5.98 7.84 6.11 8.3C6.46 9.57 7.62 10.5 9 10.5C10.38 10.5 11.54 9.57 11.89 8.3C12.02 7.84 12.4 7.5 12.87 7.5C13.52 7.5 14 8.12 13.84 8.75C13.29 10.91 11.33 12.5 9 12.5Z" fill="#27AE60"/>
</svg>
