<svg width="38" height="38" viewBox="0 0 38 38" fill="none" xmlns="http://www.w3.org/2000/svg">
<rect x="0.796875" y="1" width="36" height="36" stroke="#27AE60" stroke-width="1.3" stroke-linejoin="round"/>
<path d="M3.40625 6.29594C3.40625 4.81219 4.60907 3.60938 6.09282 3.60938H31.5023C32.986 3.60938 34.1889 4.81219 34.1889 6.29594V24.4789H3.40625V6.29594Z" stroke="#27AE60" stroke-width="1.3" stroke-linejoin="round"/>
<path fill-rule="evenodd" clip-rule="evenodd" d="M12.2722 28.8506C11.744 28.8663 11.0939 29.0248 10.5582 29.4442C9.98603 29.8921 9.48224 30.6866 9.44841 32.0945C10.8374 31.8675 11.5547 31.2596 11.9197 30.6316C12.262 30.0428 12.3296 29.3762 12.2722 28.8506ZM8.51046 32.6313C8.41515 30.6702 9.05151 29.4227 9.97525 28.6996C10.8765 27.994 11.9768 27.8469 12.7195 27.9212C12.9348 27.9427 13.1019 28.1055 13.138 28.3085C13.3072 29.0343 13.3055 30.1293 12.7373 31.1068C12.1459 32.1245 10.9919 32.928 9.02429 33.0992C8.76413 33.1218 8.53488 32.9293 8.51225 32.6691C8.51115 32.6564 8.51055 32.6438 8.51046 32.6313Z" fill="#27AE60"/>
<path fill-rule="evenodd" clip-rule="evenodd" d="M19.2969 27.3051C19.1269 27.1743 18.8902 27.1743 18.7203 27.3051L16.208 29.2376C16.001 29.3968 15.9623 29.6937 16.1215 29.9007C16.2807 30.1077 16.5776 30.1464 16.7846 29.9872L19.0086 28.2764L21.2326 29.9872C21.4396 30.1464 21.7364 30.1077 21.8956 29.9007C22.0549 29.6937 22.0161 29.3968 21.8092 29.2376L19.2969 27.3051ZM17.7415 30.3853C17.7415 30.1242 17.5298 29.9125 17.2687 29.9125C17.0075 29.9125 16.7958 30.1242 16.7958 30.3853V32.7044C16.7958 32.9655 17.0075 33.1772 17.2687 33.1772H20.7472C21.0084 33.1772 21.2201 32.9655 21.2201 32.7044V30.3853C21.2201 30.1242 21.0084 29.9125 20.7472 29.9125C20.4861 29.9125 20.2744 30.1242 20.2744 30.3853V32.2315H17.7415V30.3853Z" fill="#27AE60"/>
<path fill-rule="evenodd" clip-rule="evenodd" d="M26.0136 29.3968C26.0136 28.7087 26.5348 28.1933 27.127 28.1933C27.7113 28.1933 28.2265 28.6951 28.2401 29.3695C28.2395 29.3787 28.2392 29.388 28.2392 29.3974C28.2392 29.6363 28.4329 29.83 28.6718 29.83C29.2639 29.83 29.7852 30.3454 29.7852 31.0335C29.7852 31.7216 29.2639 32.237 28.6718 32.237C28.6664 32.237 28.661 32.2371 28.6557 32.2373H25.6092C25.5996 32.2367 25.5899 32.2363 25.5801 32.2363C24.988 32.2363 24.4667 31.7209 24.4667 31.0328C24.4667 30.3462 24.9858 29.8315 25.5764 29.8293L25.581 29.8294C25.8199 29.8294 26.0136 29.6357 26.0136 29.3968ZM25.5494 33.1012C24.4488 33.084 23.6016 32.1416 23.6016 31.0328C23.6016 30.0503 24.2669 29.1984 25.1842 29.0052C25.3578 28.0648 26.1445 27.3281 27.127 27.3281C28.1099 27.3281 28.8968 28.0654 29.07 29.0063C29.9861 29.2005 30.6503 30.0518 30.6503 31.0335C30.6503 32.1455 29.7981 33.0902 28.6928 33.102C28.6865 33.1023 28.6802 33.1024 28.6739 33.1024L25.582 33.1025C25.571 33.1025 25.5601 33.102 25.5494 33.1012Z" fill="#27AE60"/>
<path d="M8.625 8.30664H14.1033V13.7849H8.625" stroke="#27AE60" stroke-width="1.3" stroke-linecap="round" stroke-linejoin="round"/>
<path d="M8.6233 13.7852V19.2634H14.1016" stroke="#27AE60" stroke-width="1.3" stroke-linecap="round" stroke-linejoin="round"/>
<path d="M16.7109 8.30664H22.1892V13.7849H16.7109" stroke="#27AE60" stroke-width="1.3" stroke-linecap="round" stroke-linejoin="round"/>
<path d="M16.7092 13.7852V19.2634H22.1875" stroke="#27AE60" stroke-width="1.3" stroke-linecap="round" stroke-linejoin="round"/>
<circle cx="28.4497" cy="14.0454" r="1.04348" stroke="#27AE60" stroke-width="1.3" stroke-linejoin="round"/>
<circle cx="28.447" cy="11.4372" r="0.521739" transform="rotate(-180 28.447 11.4372)" fill="#27AE60"/>
<circle cx="28.447" cy="18.7419" r="0.521739" transform="rotate(-180 28.447 18.7419)" fill="#27AE60"/>
<circle cx="28.447" cy="9.34935" r="0.521739" transform="rotate(-180 28.447 9.34935)" fill="#27AE60"/>
<circle cx="28.447" cy="16.654" r="0.521739" transform="rotate(-180 28.447 16.654)" fill="#27AE60"/>
</svg>
