<svg width="39" height="38" viewBox="0 0 39 38" fill="none" xmlns="http://www.w3.org/2000/svg">
<rect x="37.6016" y="37" width="36" height="21.4899" transform="rotate(-180 37.6016 37)" stroke="#27AE60" stroke-width="1.3" stroke-linejoin="round"/>
<rect x="37.6016" y="37" width="36" height="5.82018" transform="rotate(-180 37.6016 37)" stroke="#27AE60" stroke-width="1.3" stroke-linejoin="round"/>
<rect x="37.6016" y="31.1797" width="36" height="2.68624" transform="rotate(-180 37.6016 31.1797)" stroke="#27AE60" stroke-width="1.3" stroke-linejoin="round"/>
<rect x="37.6016" y="24.0156" width="36" height="2.68624" transform="rotate(-180 37.6016 24.0156)" stroke="#27AE60" stroke-width="1.3" stroke-linejoin="round"/>
<rect x="37.6016" y="21.3301" width="36" height="5.82019" transform="rotate(-180 37.6016 21.3301)" stroke="#27AE60" stroke-width="1.3" stroke-linejoin="round"/>
<line x1="0.65" y1="-0.65" x2="10.1786" y2="-0.65" transform="matrix(-0.81545 0.578827 -0.852928 -0.522029 30.1328 30.7305)" stroke="#27AE60" stroke-width="1.3" stroke-linecap="round"/>
<line x1="0.65" y1="-0.65" x2="10.1786" y2="-0.65" transform="matrix(-0.81545 0.578827 -0.852928 -0.522029 16.5469 30.7305)" stroke="#27AE60" stroke-width="1.3" stroke-linecap="round"/>
<line x1="0.65" y1="-0.65" x2="10.1786" y2="-0.65" transform="matrix(-0.81545 0.578827 -0.852928 -0.522029 32.8438 15.0625)" stroke="#27AE60" stroke-width="1.3" stroke-linecap="round"/>
<line x1="0.65" y1="-0.65" x2="10.1786" y2="-0.65" transform="matrix(-0.81545 0.578827 -0.852928 -0.522029 19.9453 15.0625)" stroke="#27AE60" stroke-width="1.3" stroke-linecap="round"/>
<line x1="33.5531" y1="27.8441" x2="33.5531" y2="24.6671" stroke="#27AE60" stroke-width="1.3" stroke-linecap="round"/>
<line x1="29.475" y1="27.8441" x2="29.475" y2="24.6671" stroke="#27AE60" stroke-width="1.3" stroke-linecap="round"/>
<line x1="25.4047" y1="27.8441" x2="25.4047" y2="24.6671" stroke="#27AE60" stroke-width="1.3" stroke-linecap="round"/>
<line x1="21.3266" y1="27.8441" x2="21.3266" y2="24.6671" stroke="#27AE60" stroke-width="1.3" stroke-linecap="round"/>
<line x1="17.2563" y1="27.8441" x2="17.2563" y2="24.6671" stroke="#27AE60" stroke-width="1.3" stroke-linecap="round"/>
<line x1="13.1781" y1="27.8441" x2="13.1781" y2="24.6671" stroke="#27AE60" stroke-width="1.3" stroke-linecap="round"/>
<line x1="9.1" y1="27.8441" x2="9.1" y2="24.6671" stroke="#27AE60" stroke-width="1.3" stroke-linecap="round"/>
<line x1="5.02188" y1="27.8441" x2="5.02188" y2="24.6671" stroke="#27AE60" stroke-width="1.3" stroke-linecap="round"/>
<path d="M24.9629 1C24.9629 1 28.0171 3.94027 24.9629 5.9875C21.9087 8.03473 24.9629 10.975 24.9629 10.975" stroke="#27AE60" stroke-width="1.3" stroke-linecap="round"/>
<path d="M19.5645 1C19.5645 1 22.6187 3.94027 19.5645 5.9875C16.5102 8.03473 19.5645 10.975 19.5645 10.975" stroke="#27AE60" stroke-width="1.3" stroke-linecap="round"/>
<path d="M14.1582 1C14.1582 1 17.2124 3.94027 14.1582 5.9875C11.104 8.03473 14.1582 10.975 14.1582 10.975" stroke="#27AE60" stroke-width="1.3" stroke-linecap="round"/>
</svg>
