<svg width="51" height="52" viewBox="0 0 51 52" fill="none" xmlns="http://www.w3.org/2000/svg">
<ellipse cx="25.3751" cy="25.9983" rx="24.3751" ry="24.4983" stroke="#27AE60" stroke-width="1.28713"/>
<circle cx="25.5" cy="26" r="21.5" stroke="#27AE60" stroke-width="1.28713"/>
<path d="M36.2349 12.5504L36.7859 12.5336C36.7777 12.2386 36.5341 12.0042 36.2359 12.0046L36.2349 12.5504ZM36.2937 14.6725L35.9092 15.0648C36.0699 15.2193 36.3095 15.2615 36.515 15.1717C36.7205 15.0819 36.8509 14.8779 36.8447 14.6558L36.2937 14.6725ZM34.0887 12.5533L34.0897 12.0075C33.8653 12.0078 33.663 12.1428 33.5783 12.3489C33.4936 12.555 33.5434 12.791 33.7042 12.9455L34.0887 12.5533ZM34.7152 13.1554L35.1097 13.5352C35.2118 13.4313 35.2682 13.2914 35.2663 13.1466C35.2644 13.0018 35.2045 12.8638 35.0997 12.7631L34.7152 13.1554ZM31.5834 16.3436L31.1889 15.9637C31.0867 16.0677 31.0304 16.2075 31.0322 16.3523C31.0341 16.4972 31.094 16.6351 31.1988 16.7358L31.5834 16.3436ZM32.5382 17.2613L32.1536 17.6535C32.3716 17.863 32.7202 17.8575 32.9327 17.6412L32.5382 17.2613ZM35.67 14.073L36.0545 13.6808C35.8366 13.4713 35.4879 13.4769 35.2755 13.6931L35.67 14.073ZM35.6839 12.5671L35.7428 14.6893L36.8447 14.6558L36.7859 12.5336L35.6839 12.5671ZM34.0877 13.0991L36.2339 13.0962L36.2359 12.0046L34.0897 12.0075L34.0877 13.0991ZM35.0997 12.7631L34.4732 12.161L33.7042 12.9455L34.3306 13.5476L35.0997 12.7631ZM31.9779 16.7235L35.1097 13.5352L34.3207 12.7755L31.1889 15.9637L31.9779 16.7235ZM32.9227 16.869L31.9679 15.9514L31.1988 16.7358L32.1536 17.6535L32.9227 16.869ZM35.2755 13.6931L32.1437 16.8814L32.9327 17.6412L36.0645 14.4529L35.2755 13.6931ZM36.6783 14.2803L36.0545 13.6808L35.2854 14.4653L35.9092 15.0648L36.6783 14.2803Z" fill="#F7F896"/>
<path d="M19.8029 9.49609L20.1835 9.10115C19.971 8.89642 19.6347 8.89642 19.4223 9.10115L19.8029 9.49609ZM21.3401 10.9776V11.5261C21.5638 11.5261 21.7651 11.3902 21.8488 11.1828C21.9324 10.9753 21.8818 10.7378 21.7207 10.5826L21.3401 10.9776ZM18.2656 10.9776L17.885 10.5826C17.7239 10.7378 17.6733 10.9753 17.757 11.1828C17.8407 11.3902 18.0419 11.5261 18.2656 11.5261V10.9776ZM19.1334 10.9776H19.6819C19.6819 10.6746 19.4363 10.4291 19.1334 10.4291V10.9776ZM19.1334 15.4221H18.5849C18.5849 15.725 18.8304 15.9706 19.1334 15.9706V15.4221ZM20.4647 15.4221V15.9706C20.7676 15.9706 21.0131 15.725 21.0131 15.4221H20.4647ZM20.4647 10.9776V10.4291C20.1617 10.4291 19.9162 10.6746 19.9162 10.9776H20.4647ZM19.4223 9.89103L20.9595 11.3725L21.7207 10.5826L20.1835 9.10115L19.4223 9.89103ZM18.6462 11.3725L20.1835 9.89103L19.4223 9.10115L17.885 10.5826L18.6462 11.3725ZM19.1334 10.4291H18.2656V11.5261H19.1334V10.4291ZM19.6819 15.4221V10.9776H18.5849V15.4221H19.6819ZM20.4647 14.8736H19.1334V15.9706H20.4647V14.8736ZM19.9162 10.9776V15.4221H21.0131V10.9776H19.9162ZM21.3401 10.4291H20.4647V11.5261H21.3401V10.4291Z" fill="#F7F896"/>
<path d="M42 28.6007L42.3908 28.9855C42.6011 28.772 42.6011 28.4293 42.3908 28.2158L42 28.6007ZM40.5023 30.1212L39.9538 30.1212C39.9538 30.3438 40.0883 30.5444 40.2943 30.6288C40.5003 30.7132 40.7369 30.6647 40.8931 30.5061L40.5023 30.1212ZM40.5023 27.0801L40.8931 26.6952C40.7369 26.5366 40.5003 26.4881 40.2943 26.5725C40.0883 26.657 39.9538 26.8575 39.9538 27.0801L40.5023 27.0801ZM40.5023 27.9361L40.5023 28.4846C40.8052 28.4846 41.0508 28.239 41.0508 27.9361L40.5023 27.9361ZM36.0121 27.9361L36.0121 27.3876C35.7092 27.3876 35.4636 27.6332 35.4636 27.9361L36.0121 27.9361ZM36.0121 29.253L35.4636 29.253C35.4636 29.3984 35.5214 29.538 35.6243 29.6408C35.7271 29.7437 35.8666 29.8015 36.0121 29.8015L36.0121 29.253ZM40.5023 29.253L41.0508 29.253C41.0508 29.1075 40.993 28.968 40.8901 28.8651C40.7873 28.7623 40.6478 28.7045 40.5023 28.7045L40.5023 29.253ZM41.6092 28.2158L40.1115 29.7363L40.8931 30.5061L42.3908 28.9855L41.6092 28.2158ZM40.1115 27.465L41.6092 28.9855L42.3908 28.2158L40.8931 26.6952L40.1115 27.465ZM41.0508 27.9361L41.0508 27.0801L39.9538 27.0801L39.9538 27.9361L41.0508 27.9361ZM36.0121 28.4846L40.5023 28.4846L40.5023 27.3876L36.0121 27.3876L36.0121 28.4846ZM36.5606 29.253L36.5606 27.9361L35.4636 27.9361L35.4636 29.253L36.5606 29.253ZM40.5023 28.7045L36.0121 28.7045L36.0121 29.8015L40.5023 29.8015L40.5023 28.7045ZM41.0508 30.1212L41.0508 29.253L39.9538 29.253L39.9538 30.1212L41.0508 30.1212Z" fill="#F7F896"/>
<path d="M25.4706 42.498L25.09 42.893C25.3024 43.0977 25.6387 43.0977 25.8512 42.893L25.4706 42.498ZM23.9333 41.0166L23.9333 40.4681C23.7096 40.4681 23.5084 40.6039 23.4247 40.8114C23.341 41.0188 23.3917 41.2563 23.5527 41.4115L23.9333 41.0166ZM27.0078 41.0166L27.3884 41.4115C27.5495 41.2563 27.6002 41.0188 27.5165 40.8114C27.4328 40.6039 27.2315 40.4681 27.0078 40.4681L27.0078 41.0166ZM26.1401 41.0166L25.5916 41.0166C25.5916 41.3195 25.8371 41.5651 26.1401 41.5651L26.1401 41.0166ZM26.1401 36.5721L26.6886 36.5721C26.6886 36.2692 26.443 36.0236 26.1401 36.0236L26.1401 36.5721ZM24.8088 36.5721L24.8088 36.0236C24.6633 36.0236 24.5238 36.0814 24.4209 36.1842C24.3181 36.2871 24.2603 36.4266 24.2603 36.5721L24.8088 36.5721ZM24.8088 41.0166L24.8088 41.5651C25.1117 41.5651 25.3573 41.3195 25.3573 41.0166L24.8088 41.0166ZM25.8512 42.1031L24.3139 40.6216L23.5527 41.4115L25.09 42.893L25.8512 42.1031ZM26.6272 40.6216L25.09 42.1031L25.8512 42.893L27.3884 41.4115L26.6272 40.6216ZM26.1401 41.5651L27.0078 41.5651L27.0078 40.4681L26.1401 40.4681L26.1401 41.5651ZM25.5916 36.5721L25.5916 41.0166L26.6886 41.0166L26.6886 36.5721L25.5916 36.5721ZM24.8088 37.1206L26.1401 37.1206L26.1401 36.0236L24.8088 36.0236L24.8088 37.1206ZM25.3573 41.0166L25.3573 36.5721L24.2603 36.5721L24.2603 41.0166L25.3573 41.0166ZM23.9333 41.5651L24.8088 41.5651L24.8088 40.4681L23.9333 40.4681L23.9333 41.5651Z" fill="#F7F896"/>
<path d="M9 28.5986L8.60923 28.2137C8.39893 28.4272 8.39893 28.7699 8.60923 28.9835L9 28.5986ZM10.4977 27.078L11.0462 27.078C11.0462 26.8554 10.9117 26.6549 10.7057 26.5704C10.4997 26.486 10.2631 26.5345 10.1069 26.6931L10.4977 27.078ZM10.4977 30.1191L10.1069 30.504C10.2631 30.6626 10.4997 30.7111 10.7057 30.6267C10.9117 30.5423 11.0462 30.3417 11.0462 30.1191L10.4977 30.1191ZM10.4977 29.2631L10.4977 28.7146C10.1948 28.7146 9.94921 28.9602 9.94921 29.2631L10.4977 29.2631ZM14.9879 29.2631L14.9879 29.8116C15.2908 29.8116 15.5364 29.566 15.5364 29.2631L14.9879 29.2631ZM14.9879 27.9462L15.5364 27.9462C15.5364 27.6433 15.2908 27.3978 14.9879 27.3978L14.9879 27.9462ZM10.4977 27.9462L9.94921 27.9462C9.94921 28.2492 10.1948 28.4947 10.4977 28.4947L10.4977 27.9462ZM9.39077 28.9835L10.8885 27.4629L10.1069 26.6931L8.60923 28.2137L9.39077 28.9835ZM10.8885 29.7342L9.39077 28.2137L8.60923 28.9835L10.1069 30.504L10.8885 29.7342ZM9.94921 29.2631L9.94921 30.1191L11.0462 30.1191L11.0462 29.2631L9.94921 29.2631ZM14.9879 28.7146L10.4977 28.7146L10.4977 29.8116L14.9879 29.8116L14.9879 28.7146ZM14.4394 27.9462L14.4394 29.2631L15.5364 29.2631L15.5364 27.9462L14.4394 27.9462ZM10.4977 28.4947L14.9879 28.4947L14.9879 27.3978L10.4977 27.3978L10.4977 28.4947ZM9.94921 27.078L9.94921 27.9462L11.0462 27.9462L11.0462 27.078L9.94921 27.078Z" fill="#F7F896"/>
<path d="M35.0384 22.526C35.0384 22.223 34.7928 21.9775 34.4899 21.9775C34.187 21.9775 33.9414 22.223 33.9414 22.526H35.0384ZM34.4899 34.9114L34.4926 35.4599C34.7945 35.4584 35.0384 35.2133 35.0384 34.9114H34.4899ZM16.0068 35.0017H15.4583C15.4583 35.1476 15.5164 35.2876 15.6199 35.3905C15.7233 35.4934 15.8635 35.5509 16.0095 35.5502L16.0068 35.0017ZM16.5553 22.3782C16.5553 22.0753 16.3097 21.8297 16.0068 21.8297C15.7039 21.8297 15.4583 22.0753 15.4583 22.3782H16.5553ZM25.2443 12.791L25.6143 12.3861C25.408 12.1976 25.0929 12.1943 24.8828 12.3785L25.2443 12.791ZM35.5256 22.9274C35.7493 23.1317 36.0962 23.116 36.3005 22.8924C36.5049 22.6688 36.4892 22.3218 36.2656 22.1175L35.5256 22.9274ZM14.0369 21.884C13.8091 22.0837 13.7863 22.4302 13.9859 22.658C14.1856 22.8858 14.5321 22.9087 14.76 22.709L14.0369 21.884ZM14.388 21.7489C14.0851 21.7547 13.8443 22.0049 13.85 22.3078C13.8558 22.6106 14.106 22.8515 14.4089 22.8457L14.388 21.7489ZM16.0131 22.8152C16.316 22.8094 16.5568 22.5592 16.5511 22.2563C16.5453 21.9535 16.2951 21.7126 15.9922 21.7184L16.0131 22.8152ZM34.4927 21.9725C34.1897 21.9725 33.9442 22.2181 33.9442 22.521C33.9442 22.824 34.1897 23.0695 34.4927 23.0695V21.9725ZM35.7837 23.0695C36.0866 23.0695 36.3321 22.824 36.3321 22.521C36.3321 22.2181 36.0866 21.9725 35.7837 21.9725V23.0695ZM16.4755 24.6805C16.1725 24.6805 15.927 24.9261 15.927 25.229C15.927 25.532 16.1725 25.7775 16.4755 25.7775V24.6805ZM34.0959 25.7775C34.3988 25.7775 34.6444 25.532 34.6444 25.229C34.6444 24.9261 34.3988 24.6805 34.0959 24.6805V25.7775ZM22.6715 27.2204V26.6719C22.3686 26.6719 22.123 26.9174 22.123 27.2204H22.6715ZM27.7438 27.2204H28.2923C28.2923 26.9174 28.0467 26.6719 27.7438 26.6719V27.2204ZM27.1953 34.6034C27.1953 34.9063 27.4408 35.1519 27.7438 35.1519C28.0467 35.1519 28.2923 34.9063 28.2923 34.6034H27.1953ZM22.123 34.6034C22.123 34.9063 22.3686 35.1519 22.6715 35.1519C22.9745 35.1519 23.22 34.9063 23.22 34.6034H22.123ZM26.1828 31.1549C26.1828 31.134 26.1923 31.1175 26.2007 31.1093C26.2088 31.1015 26.2181 31.0986 26.224 31.0986V32.1956C26.7914 32.1956 27.2797 31.7451 27.2797 31.1549H26.1828ZM26.224 31.2112C26.2181 31.2112 26.2088 31.2084 26.2007 31.2005C26.1923 31.1923 26.1828 31.1758 26.1828 31.1549H27.2797C27.2797 30.5647 26.7914 30.1142 26.224 30.1142V31.2112ZM26.2653 31.1549C26.2653 31.1758 26.2557 31.1923 26.2473 31.2005C26.2392 31.2084 26.2299 31.2112 26.224 31.2112V30.1142C25.6566 30.1142 25.1683 30.5647 25.1683 31.1549H26.2653ZM26.224 31.0986C26.2299 31.0986 26.2392 31.1015 26.2473 31.1093C26.2557 31.1175 26.2653 31.134 26.2653 31.1549H25.1683C25.1683 31.7451 25.6566 32.1956 26.224 32.1956V31.0986ZM33.9414 22.526V34.9114H35.0384V22.526H33.9414ZM34.4872 34.3629L16.0041 34.4532L16.0095 35.5502L34.4926 35.4599L34.4872 34.3629ZM16.5553 35.0017V22.3782H15.4583V35.0017H16.5553ZM24.8743 13.1959L35.5256 22.9274L36.2656 22.1175L25.6143 12.3861L24.8743 13.1959ZM14.76 22.709L25.6058 13.2035L24.8828 12.3785L14.0369 21.884L14.76 22.709ZM14.4089 22.8457L16.0131 22.8152L15.9922 21.7184L14.388 21.7489L14.4089 22.8457ZM34.4927 23.0695H35.7837V21.9725H34.4927V23.0695ZM16.4755 25.7775H34.0959V24.6805H16.4755V25.7775ZM22.6715 27.7688H27.7438V26.6719H22.6715V27.7688ZM27.1953 27.2204V34.6034H28.2923V27.2204H27.1953ZM23.22 34.6034V27.2204H22.123V34.6034H23.22Z" fill="#F7F896"/>
</svg>
