<svg width="51" height="52" viewBox="0 0 51 52" fill="none" xmlns="http://www.w3.org/2000/svg">
<path d="M35.3121 15.5227L25.6617 12.0918L16.0113 15.5227C15.1289 15.9365 14.3601 16.5424 13.7666 17.2919C13.1731 18.0413 12.7714 18.9133 12.5938 19.8381C12.5938 21.6876 12.7898 24.3412 13.126 27.5443C13.1959 29.2533 13.4494 30.9509 13.8824 32.6103C15.143 35.8938 17.8601 37.8371 21.2637 40.2628C22.6648 41.2503 24.1341 42.1458 25.6617 42.9432C27.1874 42.1427 28.6565 41.2473 30.0597 40.2628C33.4633 37.8371 36.1804 35.8938 37.441 32.6103C37.874 30.9509 38.1275 29.2533 38.1974 27.5443C38.5336 24.3412 38.6736 21.6876 38.7297 19.8381C38.552 18.9133 38.1503 18.0413 37.5568 17.2919C36.9633 16.5424 36.1945 15.9365 35.3121 15.5227Z" stroke="#F7F896" stroke-width="1.28716" stroke-miterlimit="10" stroke-linecap="round" stroke-linejoin="round"/>
<path d="M21.2734 25.9176L25.1252 29.6032L31.0219 23.9609" stroke="#F7F896" stroke-width="1.28716" stroke-miterlimit="10" stroke-linecap="round" stroke-linejoin="round"/>
<path d="M29.8081 1.5H30.4516C30.4516 1.14456 30.1635 0.856418 29.8081 0.856418V1.5ZM21.8621 1.5V0.856418C21.5067 0.856418 21.2185 1.14456 21.2185 1.5L21.8621 1.5ZM29.8081 5.84262H29.1645C29.1645 6.15182 29.3844 6.41732 29.6882 6.47493L29.8081 5.84262ZM37.3493 8.8687L36.9992 9.40869C37.254 9.57393 37.5896 9.53854 37.8044 9.32379L37.3493 8.8687ZM40.3501 5.86793L40.8052 5.41285C40.6845 5.29216 40.5208 5.22435 40.3501 5.22435C40.1794 5.22435 40.0157 5.29216 39.895 5.41285L40.3501 5.86793ZM45.9687 11.4866L46.4238 11.9416C46.6751 11.6903 46.6751 11.2828 46.4238 11.0315L45.9687 11.4866ZM43.0933 14.362L42.6382 13.9069C42.4158 14.1293 42.3867 14.48 42.5695 14.736L43.0933 14.362ZM46.5169 22.025L45.8887 22.1652C45.9544 22.4594 46.2154 22.6686 46.5169 22.6686V22.025ZM50.3359 22.025H50.9795C50.9795 21.6696 50.6914 21.3814 50.3359 21.3814V22.025ZM50.3359 29.971V30.6145C50.6914 30.6145 50.9795 30.3264 50.9795 29.971H50.3359ZM46.7682 29.971V29.3274C46.4513 29.3274 46.1815 29.5581 46.1324 29.8712L46.7682 29.971ZM43.6274 38.1736L43.0875 37.8234C42.9222 38.0782 42.9576 38.4139 43.1724 38.6287L43.6274 38.1736ZM45.968 40.5141L46.4231 40.9692C46.6744 40.7179 46.6744 40.3104 46.4231 40.0591L45.968 40.5141ZM40.3494 46.1328L39.8943 46.5879C40.1456 46.8392 40.5531 46.8392 40.8045 46.5879L40.3494 46.1328ZM38.134 43.9175L38.5891 43.4624C38.3667 43.24 38.0161 43.2109 37.7601 43.3937L38.134 43.9175ZM29.8081 47.4777L29.6882 46.8454C29.3844 46.903 29.1645 47.1685 29.1645 47.4777H29.8081ZM29.8081 50.5V51.1436C30.1635 51.1436 30.4516 50.8554 30.4516 50.5H29.8081ZM21.8621 50.5H21.2185C21.2185 50.8554 21.5067 51.1436 21.8621 51.1436V50.5ZM21.8621 47.4773H22.5057C22.5057 47.1681 22.2858 46.9026 21.9821 46.845L21.8621 47.4773ZM13.538 43.9173L13.912 43.3935C13.656 43.2107 13.3054 43.2398 13.0829 43.4622L13.538 43.9173ZM11.3205 46.1348L10.8654 46.5899C10.9861 46.7106 11.1498 46.7784 11.3205 46.7784C11.4912 46.7784 11.6549 46.7106 11.7756 46.5899L11.3205 46.1348ZM5.70186 40.5162L5.24677 40.0611C5.12608 40.1818 5.05827 40.3455 5.05827 40.5162C5.05827 40.6869 5.12608 40.8505 5.24677 40.9712L5.70186 40.5162ZM8.04472 38.1733L8.4998 38.6284C8.71455 38.4136 8.74995 38.078 8.58471 37.8231L8.04472 38.1733ZM4.90412 29.971L5.53992 29.8712C5.4908 29.5581 5.22104 29.3274 4.90412 29.3274V29.971ZM1.33594 29.971H0.692355C0.692355 30.3264 0.980497 30.6145 1.33594 30.6145L1.33594 29.971ZM1.33594 22.025V21.3814C0.980497 21.3814 0.692355 21.6696 0.692355 22.025H1.33594ZM5.15548 22.025V22.6686C5.45692 22.6686 5.71797 22.4594 5.78362 22.1652L5.15548 22.025ZM8.57887 14.3623L9.10267 14.7362C9.28543 14.4802 9.25637 14.1296 9.03395 13.9072L8.57887 14.3623ZM5.70114 11.4845L5.24606 11.0295C4.99473 11.2808 4.99473 11.6883 5.24606 11.9396L5.70114 11.4845ZM11.3198 5.86592L11.7749 5.41084C11.5235 5.1595 11.116 5.1595 10.8647 5.41084L11.3198 5.86592ZM14.3227 8.86889L13.8677 9.32397C14.0824 9.53873 14.4181 9.57412 14.6729 9.40887L14.3227 8.86889ZM21.8621 5.84303L21.9821 6.47533C22.2858 6.41769 22.5057 6.1522 22.5057 5.84303H21.8621ZM29.8081 0.856418H21.8621V2.14358H29.8081V0.856418ZM30.4516 5.84262V1.5H29.1645V5.84262H30.4516ZM37.6995 8.32871C35.3763 6.82225 32.7482 5.74513 29.928 5.21031L29.6882 6.47493C32.3407 6.97796 34.8129 7.99104 36.9992 9.40869L37.6995 8.32871ZM37.8044 9.32379L40.8052 6.32301L39.895 5.41285L36.8942 8.41362L37.8044 9.32379ZM39.895 6.32301L45.5136 11.9416L46.4238 11.0315L40.8052 5.41285L39.895 6.32301ZM45.5136 11.0315L42.6382 13.9069L43.5484 14.8171L46.4238 11.9416L45.5136 11.0315ZM47.145 21.8848C46.5 18.9943 45.282 16.3202 43.6171 13.9881L42.5695 14.736C44.1365 16.9309 45.2821 19.4466 45.8887 22.1652L47.145 21.8848ZM50.3359 21.3814H46.5169V22.6686H50.3359V21.3814ZM50.9795 29.971V22.025H49.6924V29.971H50.9795ZM46.7682 30.6145H50.3359V29.3274H46.7682V30.6145ZM44.1674 38.5237C45.7947 36.0144 46.921 33.1493 47.404 30.0707L46.1324 29.8712C45.678 32.767 44.6187 35.462 43.0875 37.8234L44.1674 38.5237ZM46.4231 40.0591L44.0825 37.7185L43.1724 38.6287L45.5129 40.9692L46.4231 40.0591ZM40.8045 46.5879L46.4231 40.9692L45.5129 40.0591L39.8943 45.6777L40.8045 46.5879ZM37.679 44.3725L39.8943 46.5879L40.8045 45.6777L38.5891 43.4624L37.679 44.3725ZM29.928 48.11C33.0806 47.5121 35.9931 46.2366 38.508 44.4413L37.7601 43.3937C35.3932 45.0834 32.6533 46.2831 29.6882 46.8454L29.928 48.11ZM30.4516 50.5V47.4777H29.1645V50.5H30.4516ZM21.8621 51.1436H29.8081V49.8564H21.8621V51.1436ZM21.2185 47.4773V50.5H22.5057V47.4773H21.2185ZM13.1641 44.4411C15.6784 46.2361 18.5902 47.5115 21.7421 48.1096L21.9821 46.845C19.0176 46.2825 16.2784 45.0829 13.912 43.3935L13.1641 44.4411ZM13.0829 43.4622L10.8654 45.6797L11.7756 46.5899L13.9931 44.3723L13.0829 43.4622ZM11.7756 45.6797L6.15694 40.0611L5.24677 40.9712L10.8654 46.5899L11.7756 45.6797ZM6.15694 40.9712L8.4998 38.6284L7.58964 37.7182L5.24677 40.0611L6.15694 40.9712ZM4.26832 30.0707C4.75135 33.1492 5.87758 36.0142 7.50473 38.5235L8.58471 37.8231C7.05352 35.4618 5.99428 32.7669 5.53992 29.8712L4.26832 30.0707ZM1.33594 30.6145H4.90412V29.3274H1.33594V30.6145ZM0.692355 22.025V29.971H1.97952V22.025H0.692355ZM5.15548 21.3814H1.33594V22.6686H5.15548V21.3814ZM8.05507 13.9883C6.39022 16.3204 5.17235 18.9944 4.52735 21.8849L5.78362 22.1652C6.39024 19.4467 7.53573 16.9311 9.10267 14.7362L8.05507 13.9883ZM5.24606 11.9396L8.12379 14.8174L9.03395 13.9072L6.15622 11.0295L5.24606 11.9396ZM10.8647 5.41084L5.24606 11.0295L6.15622 11.9396L11.7749 6.321L10.8647 5.41084ZM14.7778 8.41381L11.7749 5.41084L10.8647 6.321L13.8677 9.32397L14.7778 8.41381ZM21.7421 5.21073C18.9227 5.74572 16.2952 6.82274 13.9726 8.3289L14.6729 9.40887C16.8586 7.9915 19.3302 6.97852 21.9821 6.47533L21.7421 5.21073ZM21.2185 1.5V5.84303H22.5057V1.5H21.2185Z" fill="#27AE60"/>
</svg>
