<svg width="24" height="29" viewBox="0 0 24 29" fill="none" xmlns="http://www.w3.org/2000/svg">
<path d="M21.3333 7.00065H18.6667C18.6667 3.32065 15.68 0.333984 12 0.333984C8.32 0.333984 5.33333 3.32065 5.33333 7.00065H2.66667C1.2 7.00065 0 8.20065 0 9.66732V25.6673C0 27.134 1.2 28.334 2.66667 28.334H21.3333C22.8 28.334 24 27.134 24 25.6673V9.66732C24 8.20065 22.8 7.00065 21.3333 7.00065ZM12 3.00065C14.2133 3.00065 16 4.78732 16 7.00065H8C8 4.78732 9.78667 3.00065 12 3.00065ZM12 16.334C8.89333 16.334 6.28 14.214 5.54667 11.334C5.32 10.494 5.97333 9.66732 6.84 9.66732C7.46667 9.66732 7.97333 10.1207 8.14667 10.734C8.61333 12.4273 10.16 13.6673 12 13.6673C13.84 13.6673 15.3867 12.4273 15.8533 10.734C16.0267 10.1207 16.5333 9.66732 17.16 9.66732C18.0267 9.66732 18.6667 10.494 18.4533 11.334C17.72 14.214 15.1067 16.334 12 16.334Z" fill="#27AE60"/>
</svg>
