<svg width="13" height="16" viewBox="0 0 13 16" fill="none" xmlns="http://www.w3.org/2000/svg">
<path d="M6.57812 8C7.40312 8 8.07812 7.325 8.07812 6.5C8.07812 5.675 7.40312 5 6.57812 5C5.75313 5 5.07812 5.675 5.07812 6.5C5.07812 7.325 5.75313 8 6.57812 8ZM6.57812 0.5C9.72812 0.5 12.5781 2.915 12.5781 6.65C12.5781 9.035 10.7406 11.84 7.07312 15.0725C6.78813 15.32 6.36062 15.32 6.07562 15.0725C2.41562 11.84 0.578125 9.035 0.578125 6.65C0.578125 2.915 3.42813 0.5 6.57812 0.5Z" fill="#27AE60"/>
</svg>
