<svg width="50" height="50" viewBox="0 0 50 50" fill="none" xmlns="http://www.w3.org/2000/svg">
<circle cx="25.1611" cy="24.999" r="23.8564" stroke="#27AE60" stroke-width="1.28716"/>
<circle cx="25.1677" cy="24.9998" r="20.0896" stroke="#27AE60" stroke-width="1.28716"/>
<path d="M24.9565 12.9766L26.0009 16.1909H29.3807L26.6464 18.1775L27.6908 21.3918L24.9565 19.4053L22.2222 21.3918L23.2667 18.1775L20.5324 16.1909H23.9121L24.9565 12.9766Z" stroke="#F7F896" stroke-width="1.28716" stroke-linejoin="round"/>
<path d="M35.0347 16.0762L36.0791 19.2905H39.4588L36.7245 21.2771L37.769 24.4915L35.0347 22.5049L32.3004 24.4915L33.3448 21.2771L30.6105 19.2905H33.9903L35.0347 16.0762Z" stroke="#F7F896" stroke-width="1.28716" stroke-linejoin="round"/>
<path d="M14.8784 16.0762L15.9228 19.2905H19.3026L16.5683 21.2771L17.6127 24.4915L14.8784 22.5049L12.1441 24.4915L13.1885 21.2771L10.4542 19.2905H13.834L14.8784 16.0762Z" stroke="#F7F896" stroke-width="1.28716" stroke-linejoin="round"/>
<line x1="11.5967" y1="28.3681" x2="39.1952" y2="28.3681" stroke="#F7F896" stroke-width="1.28716" stroke-linecap="round"/>
<line x1="18.8858" y1="32.0088" x2="31.4466" y2="32.0088" stroke="#F7F896" stroke-width="1.28716" stroke-linecap="round"/>
<line x1="21.7998" y1="35.6552" x2="27.8017" y2="35.6552" stroke="#F7F896" stroke-width="1.28716" stroke-linecap="round"/>
<line x1="25.1826" y1="1.78616" x2="25.1826" y2="4.26613" stroke="#27AE60" stroke-width="1.28716" stroke-linecap="round"/>
<line x1="2.74916" y1="18.9766" x2="5.14463" y2="19.6184" stroke="#27AE60" stroke-width="1.28716" stroke-linecap="round"/>
<line x1="25.1826" y1="45.7354" x2="25.1826" y2="48.2153" stroke="#27AE60" stroke-width="1.28716" stroke-linecap="round"/>
<line x1="45.2023" y1="30.3535" x2="47.5978" y2="30.9954" stroke="#27AE60" stroke-width="1.28716" stroke-linecap="round"/>
<line x1="29.9043" y1="4.80553" x2="30.5462" y2="2.41006" stroke="#27AE60" stroke-width="1.28716" stroke-linecap="round"/>
<line x1="34.9754" y1="6.72242" x2="36.2154" y2="4.5747" stroke="#27AE60" stroke-width="1.28716" stroke-linecap="round"/>
<line x1="43.387" y1="34.8094" x2="45.5347" y2="36.0493" stroke="#27AE60" stroke-width="1.28716" stroke-linecap="round"/>
<line x1="39.3594" y1="9.9375" x2="41.113" y2="8.18389" stroke="#27AE60" stroke-width="1.28716" stroke-linecap="round"/>
<line x1="40.1992" y1="39.127" x2="41.9528" y2="40.8806" stroke="#27AE60" stroke-width="1.28716" stroke-linecap="round"/>
<line x1="42.6965" y1="14.1326" x2="44.8442" y2="12.8926" stroke="#27AE60" stroke-width="1.28716" stroke-linecap="round"/>
<line x1="36.7151" y1="42.5793" x2="37.9551" y2="44.727" stroke="#27AE60" stroke-width="1.28716" stroke-linecap="round"/>
<line x1="45.1348" y1="18.3915" x2="47.5302" y2="17.7496" stroke="#27AE60" stroke-width="1.28716" stroke-linecap="round"/>
<line x1="31.046" y1="44.6777" x2="31.6879" y2="47.0732" stroke="#27AE60" stroke-width="1.28716" stroke-linecap="round"/>
<line x1="1.78351" y1="24.5231" x2="4.593" y2="24.5231" stroke="#27AE60" stroke-width="0.957644" stroke-linecap="round"/>
<line x1="18.5371" y1="47.2567" x2="19.179" y2="44.8612" stroke="#27AE60" stroke-width="1.28716" stroke-linecap="round"/>
<line x1="12.9988" y1="44.781" x2="14.2388" y2="42.6333" stroke="#27AE60" stroke-width="1.28716" stroke-linecap="round"/>
<line x1="5.32446" y1="12.8367" x2="7.47218" y2="14.0767" stroke="#27AE60" stroke-width="1.28716" stroke-linecap="round"/>
<line x1="8.28125" y1="41.0156" x2="10.0349" y2="39.262" stroke="#27AE60" stroke-width="1.28716" stroke-linecap="round"/>
<line x1="9.1211" y1="8.05078" x2="10.8747" y2="9.80439" stroke="#27AE60" stroke-width="1.28716" stroke-linecap="round"/>
<line x1="4.64182" y1="36.1072" x2="6.78954" y2="34.8672" stroke="#27AE60" stroke-width="1.28716" stroke-linecap="round"/>
<line x1="14.7463" y1="4.51877" x2="15.9863" y2="6.66649" stroke="#27AE60" stroke-width="1.28716" stroke-linecap="round"/>
<line x1="2.58008" y1="30.5712" x2="4.97555" y2="29.9293" stroke="#27AE60" stroke-width="1.28716" stroke-linecap="round"/>
<line x1="19.6788" y1="2.22656" x2="20.3207" y2="4.62203" stroke="#27AE60" stroke-width="1.28716" stroke-linecap="round"/>
<line x1="45.3076" y1="24.8564" x2="49.0205" y2="24.8564" stroke="#27AE60" stroke-width="1.28716" stroke-linecap="round"/>
</svg>
