<svg width="38" height="38" viewBox="0 0 38 38" fill="none" xmlns="http://www.w3.org/2000/svg">
<path d="M3.14844 4.44336V34.882H24.3723M34.8499 4.44352V34.882H30.0141" stroke="#27AE60" stroke-width="1.3" stroke-linecap="round" stroke-linejoin="round"/>
<path d="M14.4297 1H23.0267V4.44088H14.4297V1Z" stroke="#27AE60" stroke-width="1.3" stroke-linejoin="round"/>
<path d="M1 5.23493V1H9.59702V4.44088H3.14925" stroke="#27AE60" stroke-width="1.3" stroke-linecap="round" stroke-linejoin="round"/>
<path d="M37 5.23493V1H28.403V4.44088H34.8507" stroke="#27AE60" stroke-width="1.3" stroke-linecap="round" stroke-linejoin="round"/>
<path fill-rule="evenodd" clip-rule="evenodd" d="M16.1755 7.9162C16.1755 8.17734 15.9638 8.38903 15.7027 8.38903L7.00694 8.38903C6.58909 8.38903 6.25036 8.72777 6.25036 9.14562C6.25036 9.56347 6.58909 9.9022 7.00694 9.9022H14.4636C14.5045 9.9022 14.5442 9.9074 14.5821 9.91717C15.4703 9.97464 16.1729 10.7133 16.1729 11.616C16.1729 12.5111 15.482 13.2449 14.6043 13.3132C14.5618 13.3257 14.5169 13.3324 14.4703 13.3324H7.01368C6.59583 13.3324 6.25709 13.6712 6.25709 14.089C6.25709 14.5069 6.59583 14.8456 7.01368 14.8456H14.4703C14.5143 14.8456 14.5568 14.8516 14.5972 14.8628C15.4793 14.9254 16.1755 15.6609 16.1755 16.5591C16.1755 17.5001 15.4113 18.2622 14.4703 18.2596L5.77629 18.236C5.51515 18.2353 5.30403 18.023 5.30474 17.7618C5.30545 17.5007 5.51773 17.2896 5.77886 17.2903L14.4729 17.314C14.8906 17.3151 15.2299 16.9768 15.2299 16.5591C15.2299 16.1421 14.8919 15.8041 14.475 15.8041H7.23348C7.19558 15.8041 7.15871 15.7997 7.12339 15.7913H7.01368C6.07355 15.7913 5.31142 15.0291 5.31142 14.089C5.31142 13.1882 6.01108 12.4509 6.8966 12.3907C6.93603 12.38 6.9775 12.3743 7.0203 12.3743L14.4706 12.3727C14.8885 12.3726 15.2272 12.0338 15.2272 11.616C15.2272 11.198 14.8884 10.8592 14.4705 10.8592L7.23081 10.8592C7.19525 10.8592 7.16061 10.8553 7.12729 10.8479H7.00694C6.06681 10.8479 5.30469 10.0857 5.30469 9.14562C5.30469 8.20549 6.06681 7.44336 7.00694 7.44336H15.7027C15.9638 7.44336 16.1755 7.65506 16.1755 7.9162Z" fill="#27AE60"/>
<path d="M1 2.0625V36.4713M37 2.0625V36.4713" stroke="#27AE60" stroke-width="1.3" stroke-linejoin="round"/>
<path d="M10.0703 2.65772L14.1652 2.65234" stroke="#27AE60" stroke-width="1.3" stroke-linecap="round"/>
<path d="M16.0469 27.4699L16.9179 27.474" stroke="#27AE60" stroke-width="1.3" stroke-linecap="round"/>
<path d="M16.0469 29.0578L16.9179 29.0619" stroke="#27AE60" stroke-width="1.3" stroke-linecap="round"/>
<path d="M16.0469 30.6457L16.9179 30.6498" stroke="#27AE60" stroke-width="1.3" stroke-linecap="round"/>
<path d="M16.0469 32.2355L16.9179 32.2397" stroke="#27AE60" stroke-width="1.3" stroke-linecap="round"/>
<path d="M18.7344 4.70508L18.7344 20.5861" stroke="#27AE60" stroke-width="1.3" stroke-linecap="round"/>
<path d="M18.7344 25.6152V34.6809" stroke="#27AE60" stroke-width="1.3" stroke-linecap="round"/>
<path fill-rule="evenodd" clip-rule="evenodd" d="M13.1279 26.0564C13.006 25.9345 12.9375 25.7692 12.9375 25.5968C12.9375 24.8639 13.0863 24.1387 13.3748 23.4628C13.6633 22.7869 14.0856 22.174 14.6166 21.6587C15.1476 21.1434 15.7769 20.7356 16.4681 20.4577C17.1593 20.1799 17.8995 20.0371 18.6466 20.0371C19.0055 20.0371 19.2966 20.3281 19.2966 20.6871C19.2966 21.0461 19.0055 21.3371 18.6466 21.3371C18.0649 21.3371 17.4894 21.4483 16.953 21.6639C16.4166 21.8795 15.9305 22.1951 15.5219 22.5916C15.1134 22.988 14.7904 23.4577 14.5704 23.9731C14.4366 24.2866 14.3424 24.6135 14.2891 24.9468L18.6466 24.9468C19.0055 24.9468 19.2966 25.2378 19.2966 25.5968C19.2966 25.9558 19.0055 26.2468 18.6466 26.2468L13.5875 26.2468C13.4151 26.2468 13.2498 26.1783 13.1279 26.0564Z" fill="#27AE60"/>
<path fill-rule="evenodd" clip-rule="evenodd" d="M23.993 31.0387C23.993 30.6797 24.284 30.3887 24.643 30.3887C25.3699 30.3887 26.0915 30.5112 26.7673 30.7508C27.443 30.9904 28.0629 31.3437 28.5895 31.7944C29.1162 32.2453 29.5404 32.7861 29.8321 33.3891C29.9413 33.6148 29.9987 33.9047 30.0352 34.1551C30.0744 34.4243 30.0993 34.7263 30.1156 35.018C30.1483 35.6024 30.1484 36.1885 30.1484 36.4684C30.1484 36.8273 29.8574 37.1184 29.4984 37.1184C29.1395 37.1184 28.8484 36.8273 28.8484 36.4684C28.8484 36.188 28.8481 35.6348 28.8177 35.0906C28.8024 34.818 28.7802 34.5583 28.7487 34.3423C28.7145 34.1074 28.6779 33.9885 28.6619 33.9553C28.4528 33.5231 28.1428 33.1234 27.744 32.782C27.3451 32.4404 26.8662 32.1652 26.3328 31.976C25.9995 31.8578 25.6501 31.7752 25.293 31.7298L25.293 36.4684C25.293 36.8273 25.002 37.1184 24.643 37.1184C24.284 37.1184 23.993 36.8273 23.993 36.4684L23.993 31.0387Z" fill="#27AE60"/>
<path d="M27.3281 19.5273L34.8505 19.5273" stroke="#27AE60" stroke-width="1.3" stroke-linecap="round"/>
<path d="M1.02344 36.4668L24.5342 36.4668M36.9809 36.4668L29.478 36.4668" stroke="#27AE60" stroke-width="1.3" stroke-linecap="round"/>
<path d="M27.3281 16.8809L27.3281 22.1745" stroke="#27AE60" stroke-width="1.3" stroke-linecap="round"/>
<line x1="23.5041" y1="2.64435" x2="27.9315" y2="2.64435" stroke="#27AE60" stroke-width="0.945672" stroke-linecap="round"/>
<ellipse cx="31.3589" cy="10.0003" rx="1.34328" ry="2.64683" stroke="#27AE60" stroke-width="1.3"/>
<ellipse cx="31.3589" cy="16.0871" rx="1.34328" ry="1.32342" stroke="#27AE60" stroke-width="1.3"/>
</svg>
